<svg xmlns="http://www.w3.org/2000/svg" viewBox="2.81 -62.14 562.03 69.55" width="562.03" height="69.55" aria-labelledby="SvgTitle-38ee7764-7597-48f7-a97c-2afbb88a9f01"><title id="SvgTitle-38ee7764-7597-48f7-a97c-2afbb88a9f01">SaaS家計簿（仮）</title><path d="M22.82 1.01L22.82 1.01Q17.57 1.01 12.28-0.94Q6.98-2.88 2.81-6.7L2.81-6.7L10.15-15.55Q12.96-13.1 16.45-11.59Q19.94-10.08 23.11-10.08L23.11-10.08Q26.71-10.08 28.4-11.34Q30.1-12.6 30.1-14.76L30.1-14.76Q30.1-16.34 29.16-17.32Q28.22-18.29 26.53-19.08Q24.84-19.87 22.54-20.81L22.54-20.81L15.7-23.69Q12.89-24.84 10.4-26.78Q7.92-28.73 6.37-31.61Q4.82-34.49 4.82-38.38L4.82-38.38Q4.82-42.91 7.31-46.58Q9.79-50.26 14.18-52.42Q18.58-54.58 24.26-54.58L24.26-54.58Q28.94-54.58 33.55-52.81Q38.16-51.05 41.69-47.52L41.69-47.52L35.28-39.46Q32.62-41.47 30.02-42.52Q27.43-43.56 24.26-43.56L24.26-43.56Q21.31-43.56 19.62-42.41Q17.93-41.26 17.93-39.17L17.93-39.17Q17.93-37.66 18.97-36.65Q20.02-35.64 21.82-34.85Q23.62-34.06 25.99-33.12L25.99-33.12L32.69-30.46Q36-29.16 38.38-27.14Q40.75-25.13 42.01-22.36Q43.27-19.58 43.27-15.77L43.27-15.77Q43.27-11.3 40.86-7.49Q38.45-3.67 33.88-1.33Q29.3 1.01 22.82 1.01ZM61.56 1.01L61.56 1.01Q57.82 1.01 55.08-0.68Q52.34-2.38 50.87-5.22Q49.39-8.06 49.39-11.45L49.39-11.45Q49.39-17.93 54.79-21.56Q60.19-25.2 72.14-26.5L72.14-26.5Q72-28.15 71.35-29.34Q70.7-30.53 69.37-31.14Q68.04-31.75 65.95-31.75L65.95-31.75Q63.5-31.75 60.91-30.82Q58.32-29.88 55.22-28.15L55.22-28.15L50.76-36.58Q53.5-38.23 56.34-39.42Q59.18-40.61 62.21-41.29Q65.23-41.98 68.4-41.98L68.4-41.98Q73.73-41.98 77.4-39.96Q81.07-37.94 83.02-33.8Q84.96-29.66 84.96-23.26L84.96-23.26L84.96 0L74.52 0L73.66-4.1L73.3-4.1Q70.78-1.87 67.86-0.43Q64.94 1.01 61.56 1.01ZM65.95-8.93L65.95-8.93Q67.9-8.93 69.34-9.79Q70.78-10.66 72.14-12.17L72.14-12.17L72.14-18.72Q68.18-18.22 65.84-17.28Q63.5-16.34 62.53-15.12Q61.56-13.9 61.56-12.46L61.56-12.46Q61.56-10.66 62.75-9.79Q63.94-8.93 65.95-8.93ZM105.19 1.01L105.19 1.01Q101.45 1.01 98.71-0.68Q95.98-2.38 94.5-5.22Q93.02-8.06 93.02-11.45L93.02-11.45Q93.02-17.93 98.42-21.56Q103.82-25.2 115.78-26.5L115.78-26.5Q115.63-28.15 114.98-29.34Q114.34-30.53 113-31.14Q111.67-31.75 109.58-31.75L109.58-31.75Q107.14-31.75 104.54-30.82Q101.95-29.88 98.86-28.15L98.86-28.15L94.39-36.58Q97.13-38.23 99.97-39.42Q102.82-40.61 105.84-41.29Q108.86-41.98 112.03-41.98L112.03-41.98Q117.36-41.98 121.03-39.96Q124.7-37.94 126.65-33.8Q128.59-29.66 128.59-23.26L128.59-23.26L128.59 0L118.15 0L117.29-4.1L116.93-4.1Q114.41-1.87 111.49-0.43Q108.58 1.01 105.19 1.01ZM109.58-8.93L109.58-8.93Q111.53-8.93 112.97-9.79Q114.41-10.66 115.78-12.17L115.78-12.17L115.78-18.72Q111.82-18.22 109.48-17.28Q107.14-16.34 106.16-15.12Q105.19-13.9 105.19-12.46L105.19-12.46Q105.19-10.66 106.38-9.79Q107.57-8.93 109.58-8.93ZM156.1 1.01L156.1 1.01Q150.84 1.01 145.55-0.94Q140.26-2.88 136.08-6.7L136.08-6.7L143.42-15.55Q146.23-13.1 149.72-11.59Q153.22-10.08 156.38-10.08L156.38-10.08Q159.98-10.08 161.68-11.34Q163.37-12.6 163.37-14.76L163.37-14.76Q163.37-16.34 162.43-17.32Q161.5-18.29 159.8-19.08Q158.11-19.87 155.81-20.81L155.81-20.81L148.97-23.69Q146.16-24.84 143.68-26.78Q141.19-28.73 139.64-31.61Q138.1-34.49 138.1-38.38L138.1-38.38Q138.1-42.91 140.58-46.58Q143.06-50.26 147.46-52.42Q151.85-54.58 157.54-54.58L157.54-54.58Q162.22-54.58 166.82-52.81Q171.43-51.05 174.96-47.52L174.96-47.52L168.55-39.46Q165.89-41.47 163.3-42.52Q160.7-43.56 157.54-43.56L157.54-43.56Q154.58-43.56 152.89-42.41Q151.2-41.26 151.2-39.17L151.2-39.17Q151.2-37.66 152.24-36.65Q153.29-35.64 155.09-34.85Q156.89-34.06 159.26-33.12L159.26-33.12L165.96-30.46Q169.27-29.16 171.65-27.14Q174.02-25.13 175.28-22.36Q176.54-19.58 176.54-15.77L176.54-15.77Q176.54-11.3 174.13-7.49Q171.72-3.67 167.15-1.33Q162.58 1.01 156.1 1.01ZM209.81-50.76L209.81-61.49L220.61-61.49L220.61-50.76L209.81-50.76ZM184.32-38.95L184.32-56.23L246.46-56.23L246.46-38.95L235.73-38.95L235.73-46.8L194.54-46.8L194.54-38.95L184.32-38.95ZM196.27-34.92L196.27-43.7L234.22-43.7L234.22-34.92L196.27-34.92ZM201.96-29.66L201.96-29.66L210.1-34.34Q215.35-30.82 218.56-26.46Q221.76-22.1 223.2-17.57Q224.64-13.03 224.53-8.86Q224.42-4.68 223.06-1.4Q221.69 1.87 219.31 3.6L219.31 3.6Q217.15 5.54 215.03 6.26Q212.9 6.98 209.81 6.98L209.81 6.98Q208.44 7.06 206.89 6.98Q205.34 6.91 203.76 6.84L203.76 6.84Q203.69 4.68 202.97 1.87Q202.25-0.94 200.81-3.17L200.81-3.17Q202.82-2.95 204.59-2.88Q206.35-2.81 207.79-2.81L207.79-2.81Q209.09-2.81 210.1-3.1Q211.1-3.38 211.9-4.39L211.9-4.39Q212.98-5.26 213.52-7.24Q214.06-9.22 213.84-11.88Q213.62-14.54 212.36-17.6Q211.1-20.66 208.58-23.76Q206.06-26.86 201.96-29.66ZM213.7-41.4L213.7-41.4L222.34-37.8Q218.45-33.77 212.98-30.56Q207.5-27.36 201.28-24.98Q195.05-22.61 188.86-21.02L188.86-21.02Q188.35-22.03 187.42-23.58Q186.48-25.13 185.47-26.68Q184.46-28.22 183.6-29.16L183.6-29.16Q189.5-30.24 195.26-31.93Q201.02-33.62 205.85-36.04Q210.67-38.45 213.7-41.4ZM207.79-26.71L207.79-26.71L214.42-22.03Q211.46-19.8 207.25-17.46Q203.04-15.12 198.54-13.07Q194.04-11.02 190.08-9.65L190.08-9.65Q189.22-11.38 187.78-13.68Q186.34-15.98 184.9-17.5L184.9-17.5Q187.78-18.14 190.98-19.15Q194.18-20.16 197.32-21.38Q200.45-22.61 203.18-23.98Q205.92-25.34 207.79-26.71ZM213.91-20.16L213.91-20.16L221.04-14.83Q218.09-12.17 214.16-9.47Q210.24-6.77 205.74-4.32Q201.24-1.87 196.63 0.18Q192.02 2.23 187.78 3.67L187.78 3.67Q186.84 1.73 185.33-0.76Q183.82-3.24 182.3-4.97L182.3-4.97Q186.55-5.98 191.05-7.6Q195.55-9.22 199.84-11.23Q204.12-13.25 207.76-15.55Q211.39-17.86 213.91-20.16ZM218.45-38.16L227.23-39.89Q228.89-32.69 231.73-26.32Q234.58-19.94 238.93-15.01Q243.29-10.08 249.41-7.13L249.41-7.13Q248.26-6.12 246.85-4.5Q245.45-2.88 244.19-1.15Q242.93 0.58 242.14 2.02L242.14 2.02Q235.51-1.87 230.94-7.81Q226.37-13.75 223.42-21.42Q220.46-29.09 218.45-38.16L218.45-38.16ZM238.82-35.57L238.82-35.57L247.03-28.51Q244.51-26.71 241.78-24.91Q239.04-23.11 236.41-21.56Q233.78-20.02 231.55-18.86L231.55-18.86L224.86-25.13Q227.02-26.35 229.57-28.12Q232.13-29.88 234.58-31.86Q237.02-33.84 238.82-35.57ZM282.82-27.22L282.82-37.58L322.06-37.58L322.06-27.22L282.82-27.22ZM297 6.84L297-61.2L307.66-61.2L307.66 6.84L297 6.84ZM256.68-31.54L256.68-39.31L280.37-39.31L280.37-31.54L256.68-31.54ZM257.11-51.7L257.11-59.47L280.51-59.47L280.51-51.7L257.11-51.7ZM256.68-21.6L256.68-29.38L280.37-29.38L280.37-21.6L256.68-21.6ZM253.08-41.47L253.08-49.61L283.25-49.61L283.25-41.47L253.08-41.47ZM261.43-11.09L261.43-19.22L280.15-19.22L280.15 3.17L261.43 3.17L261.43-4.97L271.01-4.97L271.01-11.09L261.43-11.09ZM256.39 5.76L256.39-19.22L265.39-19.22L265.39 5.76L256.39 5.76ZM346.46-34.27L346.46-40.9L391.54-40.9L391.54-34.27L346.46-34.27ZM345.74-4.03L345.74-11.23L392.47-11.23L392.47-4.03L345.74-4.03ZM329.33-33.98L329.33-33.98L333.79-41.11Q335.81-40.54 338.11-39.64Q340.42-38.74 342.58-37.76Q344.74-36.79 346.1-35.86L346.1-35.86L341.42-28.01Q340.13-28.94 338.04-30.06Q335.95-31.18 333.65-32.22Q331.34-33.26 329.33-33.98ZM377.57-42.12L377.57-42.12L382.68-47.52Q384.7-46.87 387.14-45.83Q389.59-44.78 391.1-43.85L391.1-43.85L385.78-37.94Q384.41-38.88 382.03-40.1Q379.66-41.33 377.57-42.12ZM325.3-21.1L325.3-21.1L329.69-28.3Q331.63-27.72 333.94-26.82Q336.24-25.92 338.36-24.95Q340.49-23.98 341.86-23.04L341.86-23.04L337.32-15.05Q336.02-16.06 333.97-17.14Q331.92-18.22 329.62-19.3Q327.31-20.38 325.3-21.1ZM350.35-1.73L350.35-1.73L357.34-5.9Q359.35-4.32 361.19-2.27Q363.02-0.22 363.89 1.66L363.89 1.66L356.4 6.19Q355.68 4.39 353.95 2.2Q352.22 0 350.35-1.73ZM380.74-20.66L357.19-20.66L357.19-18.65L380.74-18.65L380.74-20.66ZM380.74-27.29L357.19-27.29L357.19-25.34L380.74-25.34L380.74-27.29ZM348.62-13.68L348.62-32.26L389.74-32.26L389.74-13.68L348.62-13.68ZM334.66 6.19L327.31-0.29Q329.26-2.38 331.7-5.22Q334.15-8.06 336.71-11.34Q339.26-14.62 341.64-17.86L341.64-17.86L347.9-11.59Q345.82-8.57 343.58-5.51Q341.35-2.45 339.12 0.5Q336.89 3.46 334.66 6.19L334.66 6.19ZM371.66-1.51L371.66-14.4L381.53-14.4L381.53-1.15Q381.53 1.8 380.77 3.31Q380.02 4.82 377.86 5.69L377.86 5.69Q375.77 6.48 373.18 6.62Q370.58 6.77 367.2 6.77L367.2 6.77Q366.84 5.04 365.98 2.99Q365.11 0.94 364.32-0.58L364.32-0.58Q365.98-0.5 367.92-0.5Q369.86-0.5 370.44-0.5L370.44-0.5Q371.09-0.5 371.38-0.72Q371.66-0.94 371.66-1.51L371.66-1.51ZM363.89-15.34L363.89-43.2L373.32-43.2L373.32-15.34L363.89-15.34ZM335.95-48.67L335.95-55.87L358.34-55.87L358.34-48.67L335.95-48.67ZM365.62-48.67L365.62-55.87L392.9-55.87L392.9-48.67L365.62-48.67ZM335.95-61.63L335.95-61.63L345.53-58.97Q344.16-55.66 342.18-52.34Q340.2-49.03 338.08-46.15Q335.95-43.27 333.86-41.11L333.86-41.11Q332.86-41.9 331.31-42.95Q329.76-43.99 328.18-45Q326.59-46.01 325.44-46.58L325.44-46.58Q328.61-49.32 331.45-53.39Q334.3-57.46 335.95-61.63ZM364.18-61.63L364.18-61.63L373.75-59.26Q371.66-54.14 368.32-49.5Q364.97-44.86 361.58-41.83L361.58-41.83Q360.58-42.62 358.92-43.52Q357.26-44.42 355.57-45.25Q353.88-46.08 352.66-46.58L352.66-46.58Q356.4-49.25 359.46-53.28Q362.52-57.31 364.18-61.63ZM339.41-49.25L339.41-49.25L347.4-51.55Q348.7-49.9 350.03-47.84Q351.36-45.79 352.01-44.21L352.01-44.21L343.51-41.69Q343.01-43.2 341.82-45.36Q340.63-47.52 339.41-49.25ZM368.5-50.11L368.5-50.11L376.27-52.63Q377.71-50.9 379.15-48.71Q380.59-46.51 381.31-44.86L381.31-44.86L373.03-42.12Q372.46-43.78 371.16-46.04Q369.86-48.31 368.5-50.11ZM441.72-27.36L441.72-27.36Q441.72-35.42 443.74-41.98Q445.75-48.53 448.99-53.57Q452.23-58.61 455.83-62.14L455.83-62.14L464.11-58.61Q460.8-55.01 457.92-50.47Q455.04-45.94 453.28-40.25Q451.51-34.56 451.51-27.36L451.51-27.36Q451.51-20.23 453.28-14.51Q455.04-8.78 457.92-4.28Q460.8 0.22 464.11 3.89L464.11 3.89L455.83 7.42Q452.23 3.89 448.99-1.15Q445.75-6.19 443.74-12.74Q441.72-19.3 441.72-27.36ZM496.01-37.44L496.01-57.96L506.38-57.96L506.38-37.44Q506.38-32.69 505.98-26.82Q505.58-20.95 504.54-14.83Q503.5-8.71 501.48-3.02Q499.46 2.66 496.22 7.13L496.22 7.13Q495.36 6.12 493.81 4.75Q492.26 3.38 490.64 2.16Q489.02 0.94 487.87 0.36L487.87 0.36Q490.68-3.6 492.34-8.39Q493.99-13.18 494.78-18.29Q495.58-23.4 495.79-28.33Q496.01-33.26 496.01-37.44L496.01-37.44ZM501.55-48.1L501.55-57.96L535.61-57.96L535.61-48.1L501.55-48.1ZM500.98-29.88L500.98-39.46L528.26-39.46L528.26-29.88L500.98-29.88ZM501.77-31.1L511.13-33.26Q513.14-25.99 516.74-19.84Q520.34-13.68 525.74-9.11Q531.14-4.54 538.49-1.94L538.49-1.94Q537.34-0.86 536 0.72Q534.67 2.3 533.48 4Q532.3 5.69 531.5 7.06L531.5 7.06Q523.51 3.67 517.82-1.8Q512.14-7.27 508.28-14.65Q504.43-22.03 501.77-31.1L501.77-31.1ZM525.24-37.51L525.24-39.46L527.18-39.46L528.98-39.74L535.39-37.44Q533.59-25.99 529.7-17.24Q525.82-8.5 520.2-2.41Q514.58 3.67 507.46 7.13L507.46 7.13Q506.81 5.9 505.58 4.25Q504.36 2.59 503.03 1.04Q501.7-0.5 500.62-1.37L500.62-1.37Q507.31-4.25 512.35-9.18Q517.39-14.11 520.67-21.17Q523.94-28.22 525.24-37.51L525.24-37.51ZM484.7-61.42L484.7-61.42L494.5-58.18Q492.05-52.13 488.66-45.94Q485.28-39.74 481.36-34.24Q477.43-28.73 473.26-24.62L473.26-24.62Q472.82-25.92 471.89-28.01Q470.95-30.1 469.84-32.22Q468.72-34.34 467.86-35.64L467.86-35.64Q471.17-38.74 474.34-42.84Q477.5-46.94 480.17-51.73Q482.83-56.52 484.7-61.42ZM478.08 6.7L478.08-40.68L488.02-50.62L488.02-50.54L488.02 6.7L478.08 6.7ZM564.84-27.36L564.84-27.36Q564.84-19.3 562.82-12.74Q560.81-6.19 557.6-1.15Q554.4 3.89 550.73 7.42L550.73 7.42L542.45 3.89Q545.76 0.22 548.64-4.28Q551.52-8.78 553.28-14.51Q555.05-20.23 555.05-27.36L555.05-27.36Q555.05-34.56 553.28-40.25Q551.52-45.94 548.64-50.47Q545.76-55.01 542.45-58.61L542.45-58.61L550.73-62.14Q554.4-58.61 557.6-53.57Q560.81-48.53 562.82-41.98Q564.84-35.42 564.84-27.36Z" fill="#000"></path></svg>